<svg width="151" height="92" viewBox="0 0 151 92" fill="none" xmlns="http://www.w3.org/2000/svg">
<path d="M42.2327 33.3703C42.0611 38.7687 44.7589 41.1593 44.8256 42.6775C44.7938 42.9865 44.6885 43.2834 44.5186 43.5434C44.3486 43.8034 44.1188 44.0189 43.8485 44.1719L40.798 46.3075C40.4033 46.5843 39.9379 46.743 39.4563 46.7651C39.3538 46.7603 37.5045 47.2013 34.5755 40.6612C32.7886 42.8919 30.515 44.6842 27.9287 45.9009C25.3425 47.1175 22.5122 47.7262 19.6545 47.6803C15.7747 47.8924 5.26008 45.478 5.80106 34.2831C5.42213 25.1594 13.9182 19.4916 22.7049 19.9707C24.397 19.9755 27.8526 20.0589 33.9035 21.4651V17.7422C34.5446 11.4357 30.4002 6.5425 23.2245 7.2766C22.6525 7.27898 18.6011 7.15742 12.3 9.68623C10.546 10.4918 10.3219 10.3584 9.73807 10.3584C7.97213 10.3584 8.699 5.23877 9.03741 4.59048C10.279 3.06509 17.5835 0.216907 24.7521 0.257425C29.5452 -0.16652 34.3127 1.31292 38.024 4.37597C39.5326 6.06363 40.6836 8.03958 41.4074 10.1845C42.1311 12.3294 42.4127 14.5988 42.2351 16.8556L42.2327 33.3703ZM21.6373 41.0902C29.3659 40.9781 32.638 36.3305 33.384 33.8279C33.9702 31.4326 33.8725 29.9167 33.8725 27.2973C31.568 26.7444 28.2506 26.1414 24.4447 26.1366C20.8341 25.8649 14.2399 27.4785 14.4973 33.8255C14.2018 37.8273 17.1474 41.3094 21.6373 41.0902ZM62.3705 46.584C60.4974 46.7556 59.6251 45.4256 59.3487 44.1123L47.4804 4.86934C47.2493 4.20675 47.0968 3.52271 47.0229 2.82437C46.9791 2.53646 47.0514 2.24294 47.2239 2.00831C47.3964 1.77369 47.6549 1.61714 47.9428 1.57307C48 1.56354 47.4352 1.57307 53.2453 1.57307C55.3378 1.36333 56.0194 3.01027 56.2362 4.04468L64.7489 37.6104L72.6516 4.04468C72.7779 3.27722 73.3522 1.40623 75.702 1.60406H79.7916C80.3087 1.56116 82.4393 1.48489 82.8134 4.07566L90.778 38.0704L99.5648 4.07566C99.6792 3.55608 100.213 1.36572 102.587 1.60406H107.286C107.489 1.57307 108.752 1.411 108.537 3.64903C108.435 4.08996 109.35 1.10831 95.9662 44.1433C95.6921 45.4566 94.8175 46.7865 92.9443 46.6149H88.4902C85.883 46.889 85.5088 44.3126 85.4683 44.0528L77.5657 11.3689L69.7536 44.0194C69.7155 44.2792 69.3413 46.8557 66.7317 46.5816H62.3705V46.584ZM127.546 47.9258C126.144 47.9282 119.462 47.8543 113.876 44.9966C113.319 44.761 112.845 44.3654 112.514 43.86C112.183 43.3546 112.009 42.7623 112.015 42.1579V39.5958C112.015 37.5818 113.492 37.9512 114.119 38.1919C116.512 39.1596 118.046 39.8937 120.985 40.48C129.719 42.2747 133.561 39.9318 134.502 39.4122C137.636 37.5508 137.884 33.2916 135.753 31.0822C133.256 28.9872 132.064 28.9085 123.092 26.077C121.986 25.7695 112.677 22.8332 112.656 13.5974C112.51 6.86665 118.625 0.207372 129.223 0.262191C132.243 0.259808 140.289 1.24654 142.467 3.98509C142.788 4.48323 142.948 5.06955 142.924 5.66302V8.07266C142.924 9.1309 142.538 9.66002 141.764 9.66002C139.926 9.45504 136.666 6.99774 130.048 7.09784C128.406 7.01204 120.542 7.31473 120.894 13.0492C120.792 17.5682 127.236 19.2628 127.972 19.4583C136.661 22.0729 139.566 22.5066 143.015 26.5084C147.1 31.8115 144.898 38.0203 144.052 39.7221C139.504 48.6575 127.746 47.9306 127.546 47.9258ZM137.126 72.9184C120.437 85.2454 96.2093 91.807 75.5233 91.807C47.6116 91.9911 20.6406 81.7268 -0.0877742 63.0319C-1.64399 61.6281 -0.271279 59.7047 1.62096 60.7748C24.6149 73.9293 50.6489 80.8411 77.1391 80.8242C96.9212 80.7181 116.487 76.7046 134.714 69.0143C137.522 67.8226 139.902 70.8734 137.126 72.9184ZM144.083 64.984C141.947 62.2383 129.955 63.7017 124.586 64.3428C122.968 64.5263 122.694 63.1225 124.159 62.0857C133.709 55.3716 149.392 57.295 151.194 59.5521C152.993 61.8092 150.705 77.5255 141.766 85.0333C140.393 86.194 139.08 85.5815 139.69 84.0561C141.702 78.9913 146.218 67.732 144.083 64.984Z" fill="#737373"/>
</svg>
