<svg width="149" height="109" viewBox="0 0 149 109" fill="none" xmlns="http://www.w3.org/2000/svg">
<path d="M149 0.211853C130.189 12.8304 128.187 21.9883 126.557 24.7898C124.997 27.662 123.833 38.9857 121.132 44.471C118.408 50.027 108.514 54.4058 105.743 56.2421C103.02 58.0784 99.1548 65.2116 95.9886 71.3561C70.8216 70.3203 57.0158 80.4905 35.6436 93.3915C42.4883 91.108 45.7244 89.46 45.7244 89.46C67.6553 80.9848 78.1552 73.3807 111.168 77.8773C111.424 77.8773 111.61 78.0185 111.82 78.0656C112.728 78.5836 113.054 79.69 112.542 80.6082L99.993 103.162C99.4109 104.268 98.177 104.857 96.9431 104.598C67.4225 98.9946 44.118 108.67 22.6992 108.976C5.61078 109.235 0 101.09 0 100.713C0 100.454 0.139688 100.313 0.395781 100.313C0.395781 100.313 9.3125 100.313 24.3988 96.711C41.5337 63.6814 56.8062 52.1222 73.4291 52.1222C73.4291 52.1222 90.1217 52.1222 94.5219 66.6948C99.83 57.3486 101.11 55.1121 101.11 55.1121C102.344 52.8991 109.259 36.9375 121.225 21.8235C133.215 6.75656 142.272 3.01336 149 0.211853Z" fill="#737373"/>
</svg>
