<svg width="149" height="50" viewBox="0 0 149 50" fill="none" xmlns="http://www.w3.org/2000/svg">
<path d="M33.642 46.9484L42.5587 47.1362C39.4856 46.0564 36.5056 44.7418 33.642 43.1925V46.9484ZM47.0752 45.7043V46.9484L42.5587 47.1362C51.0563 50.0704 58.8323 50.4695 64.606 48.8263C59.973 48.8733 53.9432 48.216 47.0752 45.7043ZM142.272 18.662C145.974 18.662 149.001 15.6338 149.001 11.878C149.001 8.12209 145.997 6.12678 142.272 6.12678C138.571 6.12678 135.544 8.14556 135.544 11.878C135.544 15.6104 138.547 18.662 142.272 18.662ZM135.521 46.9484H149.001V21.0094H135.521V46.9484ZM118.362 46.9484H131.842V1.10331L118.362 7.51176V46.9484ZM111.145 18.9202C106.908 14.6479 99.4115 14.9061 99.4115 14.9061C99.4115 14.9061 91.8916 14.6479 87.6777 18.9202C83.4405 23.1925 83.7665 26.878 83.7665 31.2676C83.7665 35.6573 83.4405 39.3193 87.6777 43.5916C91.9149 47.8639 99.4115 47.6057 99.4115 47.6057C99.4115 47.6057 106.931 47.8639 111.145 43.5916C115.382 39.3193 115.056 35.6573 115.056 31.2676C115.033 26.8545 115.359 23.169 111.145 18.9202ZM101.879 35.7981C101.879 36.6432 101.46 38.7324 99.3882 38.7324C97.3162 38.7324 96.8971 36.6432 96.8971 35.7981V26.3146C96.8971 24.2723 98.5966 23.7559 99.3882 23.7559C100.18 23.7559 101.879 24.2489 101.879 26.3146V35.7981ZM77.1546 18.9202C72.9174 14.6479 65.4209 14.9061 65.4209 14.9061C65.4209 14.9061 57.9243 14.6479 53.6871 18.9202C53.2448 19.3662 52.8257 19.8357 52.4532 20.3287C43.5598 13.3803 35.5743 9.41317 28.6831 5.98594V1.12678L23.4448 3.61504C10.7798 -1.57275 2.72446 -0.657256 0.79212 3.63852C0.79212 3.63852 -5.00491 11.338 15.1799 29.6479V46.9484H28.6598V40.2348C27.1465 39.2489 25.6332 38.1925 24.1432 37.0423C20.6976 34.4132 17.7641 31.9719 15.2032 29.6714V22.3944C18.2531 25.8451 22.304 29.7653 27.6354 34.2019L28.6831 35.047V28.0517C28.6831 26.4319 29.0788 23.7794 31.1974 23.7794C33.316 23.7794 33.6652 25.3991 33.6652 27.3005V38.7324C37.8559 41.5963 42.3491 43.9202 47.0985 45.6808V23.6385C47.0985 19.2488 43.9788 14.8592 37.6463 14.8592C33.9679 14.8357 30.5456 16.7841 28.6831 20V7.25354C38.4379 12.1596 48.216 18.169 51.941 20.939C49.5663 24.3662 49.7759 27.5352 49.7759 31.1972C49.7759 35.5869 49.4499 39.2489 53.6871 43.5212C57.9243 47.7935 65.4209 47.5352 65.4209 47.5352C65.4209 47.5352 72.9407 47.7935 77.1546 43.5212C81.3918 39.2489 81.0426 35.5869 81.0426 31.1972C81.0426 26.8545 81.3918 23.169 77.1546 18.9202ZM15.1799 7.51176V22.3709C3.84196 9.57749 6.12353 4.53054 6.98493 3.80284C10.1279 1.12678 15.7154 1.9249 21.9781 4.2958L15.1799 7.51176ZM67.912 35.7981C67.912 36.6432 67.4929 38.7324 65.4209 38.7324C63.3488 38.7324 62.9298 36.6432 62.9298 35.7981V26.3146C62.9298 24.2723 64.6293 23.7559 65.4209 23.7559C66.2124 23.7559 67.912 24.2489 67.912 26.3146V35.7981Z" fill="#737373"/>
</svg>
