<svg width="139" height="99" viewBox="0 0 139 99" fill="none" xmlns="http://www.w3.org/2000/svg">
<path d="M0 1.67H21.1215V58.7454C21.1215 67.7976 25.1938 73.1852 28.5059 75.4277C25.058 78.4634 14.6059 81.1435 6.73281 74.662C2.11758 70.8333 0 64.4612 0 58.5266V1.67ZM131.914 49.1189V43.1023H138.376V22.099H131.29C128.548 9.43685 117.39 0.0291138 104.06 0.0291138C88.6939 0.0291138 76.1785 12.6092 76.1785 28.1156V77.1233C80.5223 77.7523 85.7891 77.0413 90.2143 73.2946C94.8566 69.4659 96.9471 63.1211 96.9471 57.1592V55.3269H107.481V34.3236H96.9471V27.9515C96.9471 18.4891 111.119 18.4891 111.119 27.9515V49.0368C111.119 64.5159 123.607 77.1233 139 77.1233V56.202C135.063 56.202 131.914 53.0023 131.914 49.1189ZM52.0164 22.0443V52.9476C52.0164 57.1592 45.5551 57.1592 45.5551 52.9476V22.0443H24.7051V58.3352C24.7051 64.844 26.877 73.1031 36.9219 75.8106C46.9668 78.4907 52.7223 72.9117 52.7223 72.9117C52.1521 76.5763 48.7857 79.2838 43.2475 79.8308C39.0395 80.2683 33.6912 78.8462 31.0307 77.6976V96.9233C37.8449 98.9744 45.0121 99.6034 52.0979 98.2087C64.8848 95.72 72.9479 84.9722 72.9479 70.6418V21.9076H52.0164V22.0443Z" fill="#737373"/>
</svg>
