<svg width="149" height="142" viewBox="0 0 149 142" fill="none" xmlns="http://www.w3.org/2000/svg">
<path d="M132.19 54.5545C127.495 54.5545 123.363 56.5153 120.327 59.583C109.152 51.7714 94.0951 46.7429 77.4108 46.2053L86.0816 6.73625L113.69 12.9982C113.69 19.8293 119.2 25.3955 125.961 25.3955C132.848 25.3955 138.388 19.6712 138.388 12.84C138.388 6.00885 132.879 0.284576 125.961 0.284576C121.14 0.284576 116.977 3.22578 114.911 7.24226L84.4226 0.41108C82.8888 -5.61476e-05 81.3863 1.10685 80.9793 2.65651L71.4634 46.1737C54.9043 46.8694 40.0043 51.8979 28.798 59.7095C25.7617 56.5153 21.4732 54.5545 16.7778 54.5545C-0.626353 54.5545 -6.32341 78.1474 9.60957 86.212C9.04613 88.7104 8.79571 91.367 8.79571 94.0235C8.79571 120.526 38.3453 142 74.6249 142C111.061 142 140.611 120.526 140.611 94.0235C140.611 91.367 140.329 88.5839 139.64 86.0855C155.26 77.9892 149.501 54.5545 132.19 54.5545ZM34.8707 87.8881C34.8707 80.9304 40.38 75.3327 47.2978 75.3327C54.0592 75.3327 59.5684 80.8988 59.5684 87.8881C59.5684 94.7193 54.0592 100.285 47.2978 100.285C40.4113 100.317 34.8707 94.7193 34.8707 87.8881ZM101.952 117.458C90.5579 128.97 58.4102 128.97 47.0161 117.458C45.764 116.351 45.764 114.391 47.0161 113.126C48.1117 112.019 50.0524 112.019 51.148 113.126C59.8501 122.139 88.711 122.297 97.7888 113.126C98.8844 112.019 100.825 112.019 101.921 113.126C103.204 114.391 103.204 116.351 101.952 117.458ZM101.702 100.317C94.9402 100.317 89.431 94.7509 89.431 87.9197C89.431 80.9621 94.9402 75.3643 101.702 75.3643C108.588 75.3643 114.129 80.9304 114.129 87.9197C114.097 94.7193 108.588 100.317 101.702 100.317Z" fill="#737373"/>
</svg>
