<svg width="149" height="60" viewBox="0 0 149 60" fill="none" xmlns="http://www.w3.org/2000/svg">
<path d="M38.4152 4.70455L28.3344 6.79545L28.2878 39.1591C28.2878 45.1364 32.8975 49 39.0205 49C42.4196 49 44.9107 48.3864 46.2843 47.6591V39.9773C44.9572 40.5 38.4385 42.3636 38.4385 36.4091V22.0455H46.2843V13.4545H38.4385L38.4152 4.70455ZM59.1588 16.4318L58.5302 13.4545H49.5902V48.2727H59.9038V24.8409C62.3483 21.7045 66.4691 22.3182 67.7961 22.7273V13.4545C66.3993 12.9773 61.58 12.0909 59.1588 16.4318ZM80.6474 0L70.2639 2.15909V10.3864L80.6474 8.22727V0ZM10.4544 23.7045C10.4544 22.1364 11.8047 21.5227 13.9699 21.5C17.1129 21.5 21.1172 22.4318 24.2602 24.0909V14.5909C20.8378 13.2727 17.4155 12.75 13.9932 12.75C5.61191 12.75 0.0244141 17.0227 0.0244141 24.1591C0.0244141 35.3409 15.7393 33.5227 15.7393 38.3409C15.7393 40.2046 14.0863 40.8182 11.7814 40.8182C8.3591 40.8182 3.93566 39.4318 0.466758 37.5909V46.6818C4.30816 48.2955 8.19613 48.9773 11.7582 48.9773C20.3489 48.9773 26.2624 45.3864 26.2624 38.1136C26.2624 26.0909 10.4544 28.25 10.4544 23.7045ZM149.001 31.2727C149.001 20.9318 143.879 12.7727 134.055 12.7727C124.23 12.7727 118.247 20.9318 118.247 31.2045C118.247 43.3636 125.301 48.9773 135.358 48.9773C140.294 48.9773 143.996 47.8864 146.813 46.3636V38.7727C143.996 40.1591 140.76 41 136.662 41C132.634 41 129.096 39.6136 128.63 34.8864H148.861C148.908 34.3636 149.001 32.25 149.001 31.2727ZM128.537 27.4545C128.537 22.9091 131.4 21 133.985 21C136.522 21 139.223 22.9091 139.223 27.4545H128.537ZM102.252 12.7727C98.2014 12.7727 95.5939 14.6364 94.1505 15.9318L93.615 13.4318H84.5121V59.9773L94.8489 57.8409L94.8722 46.4318C96.3622 47.5 98.5739 48.9773 102.183 48.9773C109.586 48.9773 116.338 43.7045 116.338 30.8864C116.361 19.1591 109.516 12.7727 102.252 12.7727ZM99.7846 40.6136C97.3633 40.6136 95.9199 39.75 94.9188 38.7045L94.8489 23.7045C95.9199 22.5455 97.4099 21.7045 99.7846 21.7045C103.556 21.7045 106.164 25.8409 106.164 31.1136C106.187 36.5455 103.626 40.6136 99.7846 40.6136ZM70.2872 48.2727H80.6707V13.4545H70.2872V48.2727Z" fill="#737373"/>
</svg>
